<svg xmlns="http://www.w3.org/2000/svg" xmlns:xlink="http://www.w3.org/1999/xlink" viewBox="0 0 500 500">
  <defs>
    <style>
      .cls-1 {
        clip-path: url(#clip-Artboard_9);
      }

      .cls-2 {
        fill: #dde8f1;
      }

      .cls-3 {
        fill: #001b55;
      }

      .cls-4 {
        fill: #1d262d;
      }

      .cls-5 {
        fill: #606bf1;
      }

      .cls-6 {
        fill: #fbd15b;
      }

      .cls-7 {
        fill: #ff8578;
      }

      .cls-8 {
        fill: #f9fbfc;
      }

      .cls-9 {
        fill: #001c55;
      }

      .cls-10 {
        fill: #f1f2f2;
      }

      .cls-11 {
        fill: url(#radial-gradient);
      }

      .cls-12 {
        fill: #ffbb9c;
      }

      .cls-13 {
        fill: #f7b094;
      }

      .cls-14 {
        fill: #0a2033;
      }

      .cls-15 {
        fill: #30475e;
      }

      .cls-16 {
        fill: url(#radial-gradient-2);
      }

      .cls-17 {
        fill: #56548c;
      }

      .cls-18 {
        fill: url(#radial-gradient-3);
      }

      .cls-19 {
        fill: url(#radial-gradient-4);
      }

      .cls-20 {
        fill: #e8987c;
      }

      .cls-21 {
        fill: url(#radial-gradient-5);
      }

      .cls-22 {
        fill: #8495a0;
      }

      .cls-23 {
        fill: #abb5ba;
      }

      .cls-24 {
        fill: #a5b7c6;
      }

      .cls-25 {
        fill: #95a8b5;
      }

      .cls-26 {
        fill: #fff;
      }
    </style>
    <radialGradient id="radial-gradient" cx="355.981" cy="245.165" r="11.768" gradientTransform="translate(-8.834 -6.523) scale(1.098 1.098)" gradientUnits="userSpaceOnUse">
      <stop offset="0" stop-color="#ffc8af"/>
      <stop offset="1" stop-color="#ffbb9c"/>
    </radialGradient>
    <radialGradient id="radial-gradient-2" cx="171.449" cy="263.39" r="9.119" gradientTransform="translate(-7.432 -12.693) scale(0.891 0.891)" xlink:href="#radial-gradient"/>
    <radialGradient id="radial-gradient-3" cx="174.465" cy="341.367" r="7.726" gradientTransform="translate(-0.669 -1.723) scale(0.958 0.958)" xlink:href="#radial-gradient"/>
    <radialGradient id="radial-gradient-4" cx="-120.864" cy="-210.08" r="106.956" gradientTransform="translate(-192.735 -282.269) scale(0.387 0.387)" xlink:href="#radial-gradient"/>
    <radialGradient id="radial-gradient-5" cx="-353.538" cy="-384.908" r="121.959" gradientTransform="translate(-381.781 -413.01) scale(0.34 0.34)" xlink:href="#radial-gradient"/>
    <clipPath id="clip-Artboard_9">
      <rect width="500" height="500"/>
    </clipPath>
  </defs>
  <g id="Artboard_9" data-name="Artboard 9" class="cls-1">
    <rect class="cls-26" width="500" height="500"/>
    <g id="BACKGROUND">
      <g id="Group_1" data-name="Group 1">
        <rect id="Rectangle_1" data-name="Rectangle 1" class="cls-2" width="500" height="500"/>
        <path id="Path_1" data-name="Path 1" class="cls-2" d="M465.681,304.585,449.914,415.294H49l-11.84-84.456a21.017,21.017,0,0,1,12.742-22.3l35.583-14.767V258.381a20.967,20.967,0,0,1,17.949-20.766l8.414-1.232L125.979,188.6a20.974,20.974,0,0,1,20.12-15.036H290.66a20.96,20.96,0,0,1,20.925,19.462l68.835,7.268a21,21,0,0,1,18.755,19.644l2.78,47.752L450.6,281.428A20.993,20.993,0,0,1,465.681,304.585Z"/>
        <path id="Path_2" data-name="Path 2" class="cls-2" d="M73.034,327.417l12.515,87.877H403.781l9.4-67.038a16.682,16.682,0,0,0-10.115-17.7L374.82,318.832V290.743a16.644,16.644,0,0,0-14.247-16.484l-6.679-.977-11.218-37.933A16.647,16.647,0,0,0,326.7,223.415H211.959a16.634,16.634,0,0,0-16.609,15.448l-54.639,5.768a16.672,16.672,0,0,0-14.887,15.594l-2.207,37.9-38.61,10.909A16.663,16.663,0,0,0,73.034,327.417Z"/>
        <path id="Path_3" data-name="Path 3" class="cls-2" d="M335.572,382.549a19.049,19.049,0,0,0-16.307-18.866l-7.643-1.119-12.839-43.413A19.053,19.053,0,0,0,280.5,305.492H149.178a19.039,19.039,0,0,0-19.01,17.68l-56.857,6,12.265,86.119H337.013l-1.441-.6Z"/>
      </g>
    </g>
    <g id="OBJECTS">
      <g id="Group_80" data-name="Group 80">
        <g id="Group_74" data-name="Group 74">
          <g id="Group_39" data-name="Group 39">
            <g id="Group_2" data-name="Group 2">
              <rect id="Rectangle_2" data-name="Rectangle 2" class="cls-3" width="97.554" height="91.054" transform="translate(120.232 99.118)"/>
            </g>
            <g id="Group_3" data-name="Group 3">
              <rect id="Rectangle_3" data-name="Rectangle 3" class="cls-4" width="97.554" height="9.63" transform="translate(120.232 99.118)"/>
            </g>
            <g id="Group_7" data-name="Group 7">
              <g id="Group_4" data-name="Group 4">
                <path id="Path_4" data-name="Path 4" class="cls-5" d="M196.7,104.042a1.766,1.766,0,1,1-1.766-1.765A1.766,1.766,0,0,1,196.7,104.042Z"/>
              </g>
              <g id="Group_5" data-name="Group 5">
                <path id="Path_5" data-name="Path 5" class="cls-6" d="M204.069,104.042a1.765,1.765,0,1,1-1.765-1.765A1.765,1.765,0,0,1,204.069,104.042Z"/>
              </g>
              <g id="Group_6" data-name="Group 6">
                <path id="Path_6" data-name="Path 6" class="cls-7" d="M210.913,104.228a1.765,1.765,0,1,1-1.765-1.765A1.765,1.765,0,0,1,210.913,104.228Z"/>
              </g>
            </g>
            <g id="Group_31" data-name="Group 31">
              <g id="Group_17" data-name="Group 17">
                <g id="Group_8" data-name="Group 8">
                  <rect id="Rectangle_4" data-name="Rectangle 4" class="cls-7" width="13.817" height="1.161" transform="translate(137.578 117.7)"/>
                </g>
                <g id="Group_9" data-name="Group 9">
                  <rect id="Rectangle_5" data-name="Rectangle 5" class="cls-6" width="13.817" height="1.161" transform="translate(153.795 117.7)"/>
                </g>
                <g id="Group_10" data-name="Group 10">
                  <rect id="Rectangle_6" data-name="Rectangle 6" class="cls-5" width="21.426" height="1.161" transform="translate(141.852 123.955)"/>
                </g>
                <g id="Group_11" data-name="Group 11">
                  <rect id="Rectangle_7" data-name="Rectangle 7" class="cls-7" width="10.891" height="1.161" transform="translate(166.82 123.955)"/>
                </g>
                <g id="Group_12" data-name="Group 12">
                  <rect id="Rectangle_8" data-name="Rectangle 8" class="cls-6" width="9.41" height="1.161" transform="translate(149.284 130.211)"/>
                </g>
                <g id="Group_13" data-name="Group 13">
                  <rect id="Rectangle_9" data-name="Rectangle 9" class="cls-6" width="31.217" height="1.161" transform="translate(164.133 130.211)"/>
                </g>
                <g id="Group_14" data-name="Group 14">
                  <rect id="Rectangle_10" data-name="Rectangle 10" class="cls-5" width="35.677" height="1.161" transform="translate(156.593 136.467)"/>
                </g>
                <g id="Group_15" data-name="Group 15">
                  <rect id="Rectangle_11" data-name="Rectangle 11" class="cls-7" width="10.98" height="1.161" transform="translate(147.673 142.723)"/>
                </g>
                <g id="Group_16" data-name="Group 16">
                  <rect id="Rectangle_12" data-name="Rectangle 12" class="cls-5" width="10.98" height="1.161" transform="translate(163.351 142.723)"/>
                </g>
              </g>
              <g id="Group_30" data-name="Group 30">
                <g id="Group_18" data-name="Group 18">
                  <rect id="Rectangle_13" data-name="Rectangle 13" class="cls-7" width="15.973" height="1.161" transform="translate(137.578 175.178)"/>
                </g>
                <g id="Group_19" data-name="Group 19">
                  <rect id="Rectangle_14" data-name="Rectangle 14" class="cls-6" width="15.974" height="1.161" transform="translate(159.146 175.178)"/>
                </g>
                <g id="Group_20" data-name="Group 20">
                  <rect id="Rectangle_15" data-name="Rectangle 15" class="cls-7" width="15.973" height="1.161" transform="translate(180.133 175.178)"/>
                </g>
                <g id="Group_21" data-name="Group 21">
                  <rect id="Rectangle_16" data-name="Rectangle 16" class="cls-5" width="31.217" height="1.161" transform="translate(141.852 168.923)"/>
                </g>
                <g id="Group_22" data-name="Group 22">
                  <rect id="Rectangle_17" data-name="Rectangle 17" class="cls-7" width="31.217" height="1.161" transform="translate(177.936 168.923)"/>
                </g>
                <g id="Group_23" data-name="Group 23">
                  <rect id="Rectangle_18" data-name="Rectangle 18" class="cls-7" width="30.978" height="1.161" transform="translate(149.284 162.667)"/>
                </g>
                <g id="Group_24" data-name="Group 24">
                  <rect id="Rectangle_19" data-name="Rectangle 19" class="cls-6" width="8.622" height="1.161" transform="translate(182.963 162.667)"/>
                </g>
                <g id="Group_25" data-name="Group 25">
                  <rect id="Rectangle_20" data-name="Rectangle 20" class="cls-6" width="11.662" height="1.161" transform="translate(147.261 156.411)"/>
                </g>
                <g id="Group_26" data-name="Group 26">
                  <rect id="Rectangle_21" data-name="Rectangle 21" class="cls-5" width="11.662" height="1.161" transform="translate(165.116 156.411)"/>
                </g>
                <g id="Group_27" data-name="Group 27">
                  <rect id="Rectangle_22" data-name="Rectangle 22" class="cls-7" width="11.662" height="1.161" transform="translate(184.278 156.411)"/>
                </g>
                <g id="Group_28" data-name="Group 28">
                  <rect id="Rectangle_23" data-name="Rectangle 23" class="cls-6" width="16.352" height="1.161" transform="translate(160.779 150.155)"/>
                </g>
                <g id="Group_29" data-name="Group 29">
                  <rect id="Rectangle_24" data-name="Rectangle 24" class="cls-5" width="16.352" height="1.161" transform="translate(138.258 150.155)"/>
                </g>
              </g>
            </g>
            <g id="Group_38" data-name="Group 38">
              <g id="Group_33" data-name="Group 33">
                <g id="Group_32" data-name="Group 32">
                  <rect id="Rectangle_25" data-name="Rectangle 25" class="cls-8" width="1.486" height="1.487" transform="translate(128.535 116.585)"/>
                </g>
              </g>
              <g id="Group_35" data-name="Group 35">
                <g id="Group_34" data-name="Group 34">
                  <path id="Path_7" data-name="Path 7" class="cls-8" d="M130.022,171.126h-1.487V168.1h1.487Zm0-7.579h-1.487v-3.031h1.487Zm0-7.58h-1.487v-3.031h1.487Zm0-7.579h-1.487v-3.032h1.487Zm0-7.579h-1.487v-3.032h1.487Zm0-7.579h-1.487V130.2h1.487Zm0-7.58h-1.487v-3.031h1.487Z"/>
                </g>
              </g>
              <g id="Group_37" data-name="Group 37">
                <g id="Group_36" data-name="Group 36">
                  <rect id="Rectangle_26" data-name="Rectangle 26" class="cls-8" width="1.486" height="1.487" transform="translate(128.535 175.674)"/>
                </g>
              </g>
            </g>
          </g>
          <g id="Group_42" data-name="Group 42">
            <g id="Group_40" data-name="Group 40">
              <rect id="Rectangle_27" data-name="Rectangle 27" class="cls-9" width="80.33" height="49.515" transform="translate(238.776 79.775)"/>
            </g>
            <g id="Group_41" data-name="Group 41">
              <path id="Path_8" data-name="Path 8" class="cls-8" d="M269.975,99.69l-9.558,4.079,9.558,4.019-1.251,2.888-11.462-5.12v-3.543l11.462-5.151Z"/>
              <path id="Path_9" data-name="Path 9" class="cls-8" d="M284.059,90.253,277.123,116.9l-3.3-.774,6.967-26.616Z"/>
              <path id="Path_10" data-name="Path 10" class="cls-8" d="M300.646,102.013v3.543l-11.463,5.12-1.249-2.888,9.527-4.019-9.527-4.079,1.249-2.828Z"/>
            </g>
          </g>
          <g id="Group_45" data-name="Group 45">
            <g id="Group_43" data-name="Group 43">
              <rect id="Rectangle_28" data-name="Rectangle 28" class="cls-9" width="45.754" height="32.596" transform="translate(316.347 175.7)"/>
            </g>
            <g id="Group_44" data-name="Group 44">
              <path id="Path_11" data-name="Path 11" class="cls-10" d="M335.486,182.737c-1.472,0-1.962.4-1.962,1.495v4.906c0,1.916-.795,2.5-2.126,2.874,1.331.35,2.126.934,2.126,2.826v4.906c0,1.1.514,1.495,1.962,1.495v2.15c-3.714,0-4.766-1.192-4.766-3.668v-4.649c0-1.332-.35-1.846-1.565-1.846v-2.453c1.215,0,1.565-.537,1.565-1.869v-4.648c0-2.5,1.052-3.668,4.766-3.668Z"/>
              <path id="Path_12" data-name="Path 12" class="cls-10" d="M347.728,184.256V188.9c0,1.332.35,1.869,1.589,1.869v2.453c-1.239,0-1.589.514-1.589,1.846v4.649c0,2.476-1.051,3.668-4.766,3.668v-2.15c1.449,0,1.963-.4,1.963-1.495v-4.906c0-1.892.794-2.476,2.126-2.826-1.332-.374-2.126-.958-2.126-2.874v-4.906c0-1.1-.491-1.495-1.963-1.495v-2.149C346.677,180.588,347.728,181.756,347.728,184.256Z"/>
            </g>
          </g>
          <g id="Group_49" data-name="Group 49">
            <g id="Group_46" data-name="Group 46" transform="translate(-25)">
              <rect id="Rectangle_29" data-name="Rectangle 29" class="cls-9" width="51.329" height="34.332" transform="translate(91.183 86.876)"/>
            </g>
            <g id="Group_48" data-name="Group 48" transform="translate(-23)">
              <g id="Group_47" data-name="Group 47">
                <path id="Path_13" data-name="Path 13" class="cls-8" d="M106.171,96.731a8.425,8.425,0,0,0,11.273,12.247l5.387,5.388a.584.584,0,0,0,.824,0l1.513-1.514a.581.581,0,0,0,0-.823l-5.387-5.388a8.425,8.425,0,0,0-13.61-9.91Zm10.813,9.45a5.957,5.957,0,1,1,0-8.424A5.964,5.964,0,0,1,116.984,106.181Z"/>
              </g>
            </g>
          </g>
          <g id="Group_73" data-name="Group 73">
            <g id="Group_53" data-name="Group 53">
              <path id="Path_14" data-name="Path 14" class="cls-11" d="M289.826,192.922c-.112,1.134-1.662,12.973-13.837,12.973-12.781,0-10.64-12.654-10.64-12.654l-.016-.079a12.741,12.741,0,0,1,4.01-.192v-5.992l14.507-8.116h.527v13.98A26.366,26.366,0,0,1,289.826,192.922Z"/>
              <g id="Group_52" data-name="Group 52">
                <g id="Group_51" data-name="Group 51">
                  <g id="Group_50" data-name="Group 50">
                    <path id="Path_15" data-name="Path 15" class="cls-12" d="M282.78,152.117a16.577,16.577,0,0,1,4.36,8.084c1.394,6.146.082,12.649-1.7,18.572a9.333,9.333,0,0,1-1.277,2.888,10.274,10.274,0,0,1-1.59,1.606q-3.871,3.371-7.736,6.749c-1.745,1.528-12.489,2.8-14.539,1.334-7.9-5.649-9.422-22.018-7.841-30.386C255.08,147.082,272.923,142.119,282.78,152.117Z"/>
                  </g>
                </g>
                <path id="Path_16" data-name="Path 16" class="cls-13" d="M278.342,169.882c.1-1.336,1.479-2.8,2.858-1.932,1.428.9,1.092,3.271.5,4.577-.464,1.024-2.016,2.145-3.067,1.193-.881-.8.488-1.74.533-2.469.041-.656-1.271-1.126-.734-1.828"/>
                <path id="Path_17" data-name="Path 17" class="cls-13" d="M278.6,176.061a4.081,4.081,0,0,0,4.5-2.672,15.364,15.364,0,0,0,.551-4.3,10.3,10.3,0,0,1,.352,4.737c-.373,2.922-1.4,5.705-3.69,5.742S278.6,176.061,278.6,176.061Z"/>
                <path id="Path_18" data-name="Path 18" class="cls-9" d="M276.828,173.982a.506.506,0,0,1-.161.048c-.892.125-1.248-.954-1.38-1.629a30.057,30.057,0,0,1-.316-4.768,3.59,3.59,0,0,0-.144-1.274c-.5-1.148-1.836-1.893-2.244-3.078-.473-1.378.864-2.753.333-4.261-.813-2.311-3.78-2.843-5.926-2.817a67.384,67.384,0,0,0-9.538,1.128c-3.355.52-7.643,1.015-10.6-1.107-3.563-2.557-5.051-9.222-2.392-12.871a8.634,8.634,0,0,1,6.607-3.1c2.552-.058,4.709,1.463,7.051,2.229,1.865.61,3.669-1.174,5.412-1.523,2.191-.438,3.122,1.954,5.061,2.02,1.883.064,3.73-1.407,5.562-1.741,3.65-.667,3.435,3,5.884,4.252,1.523.778,3.489.307,5.029,1.1,1.17.6,1.334,1.657,1.589,2.854a28.145,28.145,0,0,0,.573,3.211,7.263,7.263,0,0,0,1.628,2.133,7.83,7.83,0,0,1,1.356,2.581,16.082,16.082,0,0,1,.675,6.557,44.566,44.566,0,0,1-2.743,10.786c-.8,2.254-1.1,4.6-2.325,6.731-.33.573-1.8,2.247-2.341,1a1.828,1.828,0,0,1-.079-.862c.162-2.322,2.325-17.287-3.344-15.489a4.018,4.018,0,0,0-2.432,2.5,9.725,9.725,0,0,0-.5,4.14c.01.2.015.409.007.613A.7.7,0,0,1,276.828,173.982Z"/>
              </g>
            </g>
            <path id="Path_19" data-name="Path 19" class="cls-13" d="M269.343,191.6c6.446-1.036,10.7-6.128,10.7-6.128a11.747,11.747,0,0,1-11.086,9.035Z"/>
            <g id="Group_55" data-name="Group 55">
              <path id="Rectangle_30" data-name="Rectangle 30" class="cls-14" d="M1.626,0H7.6A1.626,1.626,0,0,1,9.227,1.626V90.151a0,0,0,0,1,0,0H0a0,0,0,0,1,0,0V1.626A1.626,1.626,0,0,1,1.626,0Z" transform="translate(289.15 398.721) rotate(180)"/>
              <path id="Rectangle_31" data-name="Rectangle 31" class="cls-15" d="M6.314,0H44.428a6.314,6.314,0,0,1,6.314,6.314V7.7a0,0,0,0,1,0,0H0a0,0,0,0,1,0,0V6.314A6.314,6.314,0,0,1,6.314,0Z" transform="translate(309.908 317.535) rotate(180)"/>
              <g id="Group_54" data-name="Group 54">
                <path id="Rectangle_32" data-name="Rectangle 32" class="cls-14" d="M1.626,0H7.6A1.626,1.626,0,0,1,9.227,1.626V22.14a0,0,0,0,1,0,0H0a0,0,0,0,1,0,0V1.626A1.626,1.626,0,0,1,1.626,0Z" transform="translate(289.15 410.365) rotate(180)"/>
                <path id="Path_20" data-name="Path 20" class="cls-14" d="M236.657,404.965a5.4,5.4,0,1,0,5.4-5.4A5.4,5.4,0,0,0,236.657,404.965Z"/>
                <path id="Path_21" data-name="Path 21" class="cls-14" d="M321.617,404.965a5.4,5.4,0,1,0,5.4-5.4A5.4,5.4,0,0,0,321.617,404.965Z"/>
                <rect id="Rectangle_33" data-name="Rectangle 33" class="cls-15" width="18.562" height="16.22" transform="translate(293.818 397.57) rotate(180)"/>
                <path id="Rectangle_34" data-name="Rectangle 34" class="cls-6" d="M0,0H95.76a0,0,0,0,1,0,0V1.882a5.751,5.751,0,0,1-5.751,5.751H5.751A5.751,5.751,0,0,1,0,1.882V0A0,0,0,0,1,0,0Z" transform="translate(332.417 401.387) rotate(180)"/>
              </g>
              <rect id="Rectangle_35" data-name="Rectangle 35" class="cls-15" width="3.201" height="60.548" transform="translate(281.336 319.354)"/>
            </g>
            <path id="Path_22" data-name="Path 22" class="cls-6" d="M320.786,244.4a3.763,3.763,0,0,0-3.886,3.974c.634,10.99-1.7,37.8-11.932,46.948-12.516,11.184-47.99,9.66-47.99,9.66s-5.858,7.19,5.859,8.788,44.736.532,52.724-6.924c7.733-7.217,12.324-26.126,8.864-59.038a3.788,3.788,0,0,0-3.639-3.408Z"/>
            <g id="Group_57" data-name="Group 57">
              <g id="Group_56" data-name="Group 56">
                <path id="Path_23" data-name="Path 23" class="cls-16" d="M254.324,379.9l4.218,9.618-12.926,5.672-4.234-9.65Z"/>
                <path id="Path_24" data-name="Path 24" class="cls-17" d="M315.277,273c-.8,1.6-58.229.032-63.653.528,0,0-35.15,16.776-40.2,32.481a17.159,17.159,0,0,0-.5,6.167c1.406,22.113,26.586,75.061,26.586,75.061l3.867-1.693,12.941-5.64,1.838-.8s-19.972-59.515-15.977-62.71,49.257-11.184,64.963-15.434C320.869,296.694,315.277,273,315.277,273Z"/>
                <path id="Path_25" data-name="Path 25" class="cls-18" d="M205.048,382.377l1.01,14.45H191.949l-1.01-14.482Z"/>
                <path id="Path_26" data-name="Path 26" class="cls-17" d="M251.337,273.031l-.512.224s-58.844,8.26-68.43,24.765c-6.231,10.736,5.83,89.189,5.83,89.189l20.818.048s-3.114-65.351-2.075-68.994c1.166-4.154,3.163-5.656,3.962-6.088a17.159,17.159,0,0,1,.5-6.167c5.048-15.7,40.2-32.481,40.2-32.481A1,1,0,0,1,251.337,273.031Z"/>
                <path id="Path_27" data-name="Path 27" class="cls-9" d="M308.173,218.661l-3.947.543a192.887,192.887,0,0,1-3.307,21.282l-49.162,18.661-.671,3.563-.607-.048c.016.735.016,1.454.048,2.125.112,4.106.384,7.062.815,8.244a1.011,1.011,0,0,0,.288.5c1.335,1.089,18.723-1.022,37.52,5.88,16.3,5.986,25.44,12.525,25.863,11.647C320.136,280.4,310.809,238.6,308.173,218.661Z"/>
                <path id="Path_28" data-name="Path 28" class="cls-9" d="M303.044,243.042c-1.31,6.295-4.7,18.821-11.344,20.5-8.675,2.205-25.451,2.093-41.173,1.246-.032-.671-.032-1.39-.048-2.125l.607.048.671-3.563,49.162-18.661a192.887,192.887,0,0,0,3.307-21.282,1.386,1.386,0,0,0,.016.176C304.338,221.026,305.009,233.744,303.044,243.042Z"/>
                <path id="Path_29" data-name="Path 29" class="cls-9" d="M253.765,202.956c-.879,1.6-2.141,18.693-2.828,35.661l-10.049-9.379C245.153,220.978,253.765,202.956,253.765,202.956Z"/>
                <path id="Path_30" data-name="Path 30" class="cls-13" d="M247.742,251.015c-8.484,1.47-16.281,2.732-16.281,2.732l-.016.415c-9.443-7.541-23.806-28.9-23.806-28.9s4.3-5.161,5.368-6.519c.16-.208,23.583,15.913,24.781,15.769.3-.031,1.5-2.141,3.1-5.272l10.049,9.379c-.16,4.042-.287,8.068-.367,11.887C249.627,250.679,248.684,250.839,247.742,251.015Z"/>
                <path id="Path_31" data-name="Path 31" class="cls-19" d="M231.461,253.747l-.208,7H205.69s2.54-9.986,9.458-9.986,9.587,3.659,9.587,3.659Z"/>
                <path id="Path_32" data-name="Path 32" class="cls-13" d="M212.816,218.581l.191.16c-1.07,1.358-5.368,6.519-5.368,6.519l-2.668-1.886a6.633,6.633,0,0,1-6.359-.08c-3.563-1.933-1.358-6.549-1.175-7.1-.691.2-4.96,3.645-5.631,3.278s-1.167-1.582,3.61-6.295,11.248,1.342,11.44,1.342Z"/>
                <path id="Path_33" data-name="Path 33" class="cls-13" d="M199.168,222.493s-1.03,1.929.8,2.767a18.245,18.245,0,0,0,6.924,1.3c1.53-.148,2.747-2.289,2.747-2.289l-4.635-4.349H201.3Z"/>
                <path id="Path_34" data-name="Path 34" class="cls-20" d="M198.893,223.44c.275-.947,2.907-.442,4.538-.4,1.2.029,1.86-.286,2.232-1.2s-1.374-2.375-1.717-1.917.629,1.1.658,1.709-1.717.809-3.061.809a32.736,32.736,0,0,0-3.665.35Z"/>
              </g>
            </g>
            <path id="Path_35" data-name="Path 35" class="cls-21" d="M298.421,249.561l-25.036-8.867c-1.821,3.4-3.771,5.959-5.7,6.47-2.924.767-9.985,2.093-17.111,3.34-.943.175-1.886.335-2.828.511-8.484,1.47-16.281,2.732-16.281,2.732l-.016.415v.272l-.192,6.311v1.6a176.933,176.933,0,0,1,19.221.316c15,1.071,34.351,1.71,40.758-1.31,3-1.422,5.4-6.087,7.285-11.839Z"/>
            <path id="Path_36" data-name="Path 36" class="cls-9" d="M273.385,240.694l25.036,8.867-1.134,3.346-24.779-10.63Z"/>
            <path id="Path_37" data-name="Path 37" class="cls-9" d="M273.385,240.694c-1.821,3.4-3.771,5.959-5.7,6.47-2.924.767-9.985,2.093-17.111,3.34.08-3.819.207-7.845.367-11.887.687-16.968,1.949-34.064,2.828-35.661,1.438-2.669,5.368-8.468,11.568-9.794l.016.079s-2.141,12.654,10.64,12.654c12.175,0,13.725-11.839,13.837-12.973,6.263.7,15.865,3.834,17.191,16.424.272,2.493.655,5.688,1.15,9.315l-3.946.543s-1.6,17.735-5.7,30.309l-.1.048Z"/>
            <path id="Path_38" data-name="Path 38" class="cls-9" d="M273.126,238.386l10-24.2-7.365,25.178Z"/>
            <path id="Path_39" data-name="Path 39" class="cls-9" d="M289.826,192.922h-5.449s-7.753,8.513-12.737,8.513-2.3-8.465-2.3-8.465h-2.431a13.744,13.744,0,0,0-13.654,12.185c-.09.795-.173,1.549-.244,2.231-.533,5.15,20.33,8.9,20.33,8.9l10.742-.6,6.523-12.727,1.3-5.212Z"/>
            <g id="Group_61" data-name="Group 61">
              <g id="Group_60" data-name="Group 60">
                <g id="Group_59" data-name="Group 59">
                  <g id="Group_58" data-name="Group 58">
                    <path id="Path_40" data-name="Path 40" class="cls-10" d="M224.083,406.263c.486,2.6,2.29,4.454,4.893,3.968l34.7-6.472a1.617,1.617,0,0,0,1.293-1.886l-.574-3.079s-36.495,6.387-40.33,7.45Z"/>
                    <path id="Path_41" data-name="Path 41" class="cls-9" d="M234.407,397.526c.362-.314.71-.625,1.072-.939.7-.623,1.381-1.23,2.04-1.817.348-.311.7-.623,1.019-.915.634-.568,1.231-1.1,1.766-1.577.385-.348.744-.676,1.067-.968l1.417-1.27a.785.785,0,0,1,1.033-.021c1.426,1.2,6.037,3.941,14.388-1.226a.8.8,0,0,1,1.136.3l5.05,9.705s-36.495,6.387-40.33,7.45C225.326,405.458,229.985,401.426,234.407,397.526Z"/>
                  </g>
                </g>
              </g>
            </g>
            <g id="Group_65" data-name="Group 65">
              <g id="Group_64" data-name="Group 64">
                <g id="Group_63" data-name="Group 63">
                  <g id="Group_62" data-name="Group 62">
                    <path id="Path_42" data-name="Path 42" class="cls-10" d="M169.432,405.923c.065,2.647,1.551,4.761,4.2,4.7l35.289-.862A1.618,1.618,0,0,0,210.5,408.1l-.077-3.13s-37.047.49-41,.929Z"/>
                    <path id="Path_43" data-name="Path 43" class="cls-9" d="M181.016,398.942c.407-.252.8-.5,1.208-.757.787-.5,1.559-.993,2.3-1.468.393-.252.786-.5,1.151-.741.716-.46,1.391-.89,1.995-1.276l1.207-.785c.67-.431,1.218-.782,1.6-1.028a.783.783,0,0,1,1.022.143c1.218,1.411,5.333,4.853,14.4,1.082a.8.8,0,0,1,1.075.473l3.439,10.387s-37.047.49-41,.929C170.787,405.326,176.029,402.088,181.016,398.942Z"/>
                  </g>
                </g>
              </g>
            </g>
            <g id="Group_67" data-name="Group 67">
              <path id="Path_44" data-name="Path 44" class="cls-9" d="M144.329,262.346l-18.846-50.264h53.654l18.846,50.264Z"/>
              <path id="Path_45" data-name="Path 45" class="cls-9" d="M201.3,262.346h-3.317l-18.846-50.264,3.012.134,17.432,45.5Z"/>
              <path id="Path_46" data-name="Path 46" class="cls-9" d="M128.369,256.914H195.92"/>
              <g id="Group_66" data-name="Group 66">
                <path id="Path_47" data-name="Path 47" class="cls-9" d="M200.259,262.346h35.453l-.1-3.169H199.534"/>
              </g>
            </g>
            <g id="Group_72" data-name="Group 72">
              <g id="Group_68" data-name="Group 68">
                <rect id="Rectangle_36" data-name="Rectangle 36" class="cls-22" width="8.536" height="140.234" transform="translate(342.766 271.932)"/>
              </g>
              <g id="Group_69" data-name="Group 69">
                <rect id="Rectangle_37" data-name="Rectangle 37" class="cls-23" width="8.536" height="140.234" transform="translate(296.432 271.932)"/>
              </g>
              <g id="Group_70" data-name="Group 70">
                <rect id="Rectangle_38" data-name="Rectangle 38" class="cls-22" width="8.536" height="140.234" transform="translate(147.993 271.932)"/>
              </g>
              <g id="Group_71" data-name="Group 71">
                <rect id="Rectangle_39" data-name="Rectangle 39" class="cls-23" width="8.536" height="140.234" transform="translate(101.66 271.932)"/>
              </g>
              <rect id="Rectangle_40" data-name="Rectangle 40" class="cls-23" width="274.659" height="10.119" rx="4.149" transform="translate(89.334 262.346)"/>
            </g>
            <path id="Path_48" data-name="Path 48" class="cls-22" d="M134.441,217.366l.918,2.447h10.688l-.918-2.447Z"/>
            <path id="Path_49" data-name="Path 49" class="cls-20" d="M240.888,229.238l-.767,1.482L250.937,241.9v-3.282Z"/>
          </g>
        </g>
        <g id="Group_79" data-name="Group 79">
          <rect id="Rectangle_41" data-name="Rectangle 41" class="cls-24" width="431.916" height="9.862" transform="translate(29.745 410.363)"/>
          <g id="Group_78" data-name="Group 78" transform="translate(-1)">
            <g id="Group_75" data-name="Group 75">
              <path id="Path_50" data-name="Path 50" class="cls-17" d="M393.183,337.215c-1.716,8.325-1.2,22.506-12.213,24.752-2.965.6-5.83-1.451-7.554-3.807-2.256-3.083-2.8-9.609-2.757-13.341.032-2.958,1.04-6.257,1.365-9.241.351-3.223.636-6.453,1.012-9.674,1.355-11.608,7.419-21.337,17.676-27.131.794,3.81,2.6,7.035,4.2,10.694a37.87,37.87,0,0,1,1.857,5.175c.839,3.1-.176,6.223-.928,9.188C394.727,328.213,394.1,332.781,393.183,337.215Z"/>
              <path id="Path_51" data-name="Path 51" class="cls-9" d="M379.106,362.247c.078-.7.165-1.4.257-2.094a8.959,8.959,0,0,0,3.791-1.324,20.135,20.135,0,0,0,4.974-3.939c.081-.081-.055-.213-.141-.141a22.408,22.408,0,0,1-4.844,3.315,13.629,13.629,0,0,1-3.68,1.37q.174-1.249.382-2.495a10.479,10.479,0,0,0,3.786-1.756,43.276,43.276,0,0,0,5.426-4.143.02.02,0,0,0-.025-.031c-2.689,1.953-5.685,4.733-9.087,5.342.18-1.04.371-2.078.589-3.108.011-.054.023-.107.035-.161,3.937-1,6.6-4.084,9.615-6.58.049-.041,0-.124-.055-.084-2.969,2.3-5.758,4.937-9.428,6.055.318-1.474.649-2.943.982-4.412a21.015,21.015,0,0,0,8.9-6.308c.042-.049-.027-.117-.072-.07a27.138,27.138,0,0,1-8.683,5.749c.33-1.454.656-2.907.966-4.364a32.7,32.7,0,0,0,4.585-2.216,12.549,12.549,0,0,0,3.568-3.618.07.07,0,0,0-.118-.075c-1.994,2.865-5,3.757-7.9,5.264.283-1.358.547-2.721.783-4.091,3.237-1.782,6.753-3.434,8.587-6.849.018-.033-.029-.067-.05-.033-1.943,3.137-5.339,4.489-8.421,6.2.04-.244.084-.487.122-.732.2-1.27.384-2.543.566-3.815a31.064,31.064,0,0,0,5.306-2.886,10.1,10.1,0,0,0,3.234-2.754.07.07,0,0,0-.115-.081c-1.736,2.487-5.537,3.924-8.345,5.169q.273-1.928.546-3.856c3.115-1.885,6.781-2.928,8.7-6.325a.091.091,0,0,0-.154-.1c-1.985,3.1-5.481,4.06-8.459,5.821q.172-1.194.351-2.387c3.364-1.237,7.276-4.054,9.051-7.1a.151.151,0,0,0-.254-.162,18.885,18.885,0,0,1-8.7,6.625c.2-1.289.407-2.576.636-3.861a.337.337,0,0,0,.05-.113,19.285,19.285,0,0,0,4.308-2.315,11.775,11.775,0,0,0,4.051-3.691c.108-.176-.179-.339-.28-.158-1.495,2.667-5.041,4.454-7.977,5.473.086-.468.171-.937.264-1.4.138-.7.281-1.4.424-2.1,1.2-.83,2.728-1.227,3.935-2.1a22.266,22.266,0,0,0,2.864-2.61c.09-.093-.043-.235-.137-.146a18.949,18.949,0,0,1-3.954,3.037c-.829.443-1.774.7-2.577,1.183.235-1.143.469-2.286.693-3.431l.042-.009.043.009a.215.215,0,0,0,.2-.061c1.634-.412,2.885-1.82,3.983-3.019a.03.03,0,0,0-.042-.043,10.907,10.907,0,0,1-4.006,2.7.107.107,0,0,0-.016-.007l-.118-.018q.27-1.4.505-2.8a.214.214,0,0,0,.193-.24,17.208,17.208,0,0,0,2.393-2.049.06.06,0,0,0-.082-.088,14.018,14.018,0,0,1-2.39,1.687,57.765,57.765,0,0,0,.65-5.836c.01-.182-.265-.184-.281,0-.171,1.888-.446,3.758-.77,5.619a17.36,17.36,0,0,1-2.456-3.755c-.029-.07-.14-.042-.116.034a10.713,10.713,0,0,0,1.2,2.324,14.132,14.132,0,0,0,1.266,2.042q-.273,1.5-.584,2.991a5.514,5.514,0,0,1-3.006-1.178,5.458,5.458,0,0,1-1.848-3.757c-.013-.18-.3-.179-.281,0a6.215,6.215,0,0,0,1.6,3.659,5.849,5.849,0,0,0,3.451,1.683q-.36,1.723-.741,3.444a26.809,26.809,0,0,1-2.818-2.093,38.366,38.366,0,0,1-3.56-3.842c-.126-.13-.332.058-.207.19a40.47,40.47,0,0,0,3.315,3.734,19.1,19.1,0,0,0,3.18,2.424l-.04.182c-.013.011-.026.02-.038.032a.184.184,0,0,0-.026.257c-.242,1.1-.483,2.2-.715,3.3-.015.069-.027.139-.041.208-2.562-1.173-6.39-3.211-6.729-6.183a.2.2,0,1,0-.39.086c.758,3.363,4.455,4.853,7,6.687q-.376,1.868-.692,3.746a15.161,15.161,0,0,1-4.617-2.378c-1.264-1.005-3.051-2.217-3.62-3.774-.018-.049-.09-.017-.074.032.527,1.547,2.131,2.61,3.3,3.666a12.337,12.337,0,0,0,4.9,3.013.338.338,0,0,0-.005.167q-.195,1.191-.378,2.384c-3.111-.239-7.464-2.6-9.054-4.955-.008-.011-.023,0-.016.012A10.21,10.21,0,0,0,380,326.814a12.618,12.618,0,0,0,4.434,1.6c-.223,1.472-.439,2.946-.659,4.418-1.35-.5-2.78-.744-4.115-1.279a10.189,10.189,0,0,1-4.672-3.977c-.07-.106-.247-.017-.177.094,2.154,3.424,5.252,4.428,8.882,5.711q-.273,1.812-.57,3.621c-2.97-.57-6.813-2.383-8.315-4.963-.111-.189-.412-.032-.3.159a9.632,9.632,0,0,0,4.254,3.542c1.2.607,2.857,1.613,4.289,1.721-.007.039-.013.079-.02.118-.293,1.736-.636,3.462-1.007,5.182-3.318-.834-5.463-3.293-7.875-5.594-.168-.16-.43.085-.263.248,2.457,2.419,4.615,4.956,8.029,5.85q-.459,2.1-.97,4.189a15.331,15.331,0,0,1-7.452-5.1c-.13-.163-.357.058-.234.221A16.5,16.5,0,0,0,380.81,348q-.551,2.241-1.13,4.476a11,11,0,0,1-6.929-4.557c-.042-.054-.135.016-.1.072,1.588,2.21,3.992,4.763,6.883,5.03q-.185.714-.368,1.427c-.074.287-.152.578-.231.871a16.472,16.472,0,0,1-6.028-2.906c-.051-.041-.109.037-.061.08a15.717,15.717,0,0,0,5.97,3.264c-.244.9-.5,1.815-.755,2.753a12.252,12.252,0,0,0-1.663-.708,11.961,11.961,0,0,1-2.742-1.587c-.087-.052-.185.071-.1.128a12.446,12.446,0,0,0,2.367,1.6c.7.265,1.366.6,2.045.9-1,3.72-1.88,7.673-1.4,11.244.106.792,1.434,1,1.639.159A63.508,63.508,0,0,0,379.106,362.247Z"/>
            </g>
            <g id="Group_76" data-name="Group 76">
              <path id="Path_52" data-name="Path 52" class="cls-17" d="M358.328,334.831c1.959,8.272,8.412,20.91-.624,27.594-2.434,1.8-5.9,1.146-8.456-.262-3.346-1.843-6.59-7.531-8.129-10.931-1.221-2.7-1.7-6.112-2.663-8.954-1.043-3.07-2.147-6.119-3.166-9.2-3.671-11.1-2.279-22.475,4.574-32.057,2.328,3.119,5.33,5.279,8.32,7.923a37.837,37.837,0,0,1,3.868,3.907c2.067,2.453,2.467,5.717,3.036,8.722C355.929,326.019,357.286,330.427,358.328,334.831Z"/>
              <path id="Path_53" data-name="Path 53" class="cls-9" d="M356.132,363.467q-.336-1-.651-2.008a8.953,8.953,0,0,0,2.878-2.8,20.16,20.16,0,0,0,2.847-5.671c.038-.107-.14-.169-.187-.067a22.439,22.439,0,0,1-2.993,5.05,13.615,13.615,0,0,1-2.757,2.794q-.371-1.206-.708-2.423a10.449,10.449,0,0,0,2.691-3.189,43.371,43.371,0,0,0,3.171-6.046.02.02,0,0,0-.036-.019c-1.614,2.906-3.157,6.691-5.983,8.679-.276-1.019-.541-2.04-.778-3.066-.013-.054-.024-.107-.036-.161,3.148-2.565,4.26-6.488,5.939-10.023.027-.058-.055-.111-.085-.053-1.719,3.343-3.137,6.906-5.992,9.469-.333-1.471-.654-2.943-.972-4.415a20.994,20.994,0,0,0,5.4-9.474.05.05,0,0,0-.1-.033,27.127,27.127,0,0,1-5.445,8.876c-.315-1.456-.632-2.912-.967-4.364a32.453,32.453,0,0,0,3.222-3.943,12.531,12.531,0,0,0,1.708-4.786.07.07,0,0,0-.139-.018c-.6,3.438-2.946,5.515-4.943,8.107q-.474-2.026-1.016-4.039c2.182-2.982,4.673-5.963,4.894-9.833,0-.038-.055-.049-.06-.009-.437,3.664-2.945,6.322-5.019,9.172-.066-.238-.129-.477-.2-.715q-.535-1.854-1.1-3.7a31.07,31.07,0,0,0,3.593-4.856,10.114,10.114,0,0,0,1.769-3.862.07.07,0,0,0-.138-.025c-.525,2.988-3.364,5.895-5.384,8.209q-.566-1.865-1.133-3.726c2.029-3.025,4.912-5.517,5.216-9.406a.091.091,0,0,0-.18-.022c-.49,3.651-3.255,5.994-5.211,8.848q-.349-1.156-.69-2.313c2.528-2.541,4.886-6.746,5.211-10.252a.151.151,0,0,0-.3-.04,18.872,18.872,0,0,1-5.089,9.677c-.363-1.252-.718-2.507-1.052-3.768a.369.369,0,0,0,0-.124,19.289,19.289,0,0,0,2.928-3.916,11.784,11.784,0,0,0,2.115-5.056.161.161,0,0,0-.321-.026c-.229,3.049-2.69,6.166-4.922,8.329-.119-.461-.24-.922-.354-1.385q-.254-1.039-.5-2.081c.739-1.26,1.955-2.264,2.679-3.568a22.178,22.178,0,0,0,1.5-3.576.1.1,0,0,0-.186-.074,18.881,18.881,0,0,1-2.3,4.421c-.564.753-1.314,1.381-1.836,2.161-.27-1.135-.54-2.27-.82-3.4.012-.008.022-.018.034-.027l.043-.01a.212.212,0,0,0,.153-.139c1.308-1.063,1.848-2.867,2.337-4.418a.03.03,0,0,0-.056-.021,10.914,10.914,0,0,1-2.491,4.141.1.1,0,0,1-.018,0l-.114.033q-.346-1.38-.724-2.751a.214.214,0,0,0,.074-.3,17.089,17.089,0,0,0,1.3-2.867.06.06,0,0,0-.111-.046,13.957,13.957,0,0,1-1.455,2.538,57.826,57.826,0,0,0-1.874-5.565c-.067-.169-.317-.055-.257.114.642,1.784,1.183,3.6,1.674,5.419a17.368,17.368,0,0,1-3.812-2.367c-.055-.052-.144.021-.09.079a10.751,10.751,0,0,0,2.064,1.6A14.262,14.262,0,0,0,342,311.664c.258.982.5,1.968.734,2.957a5.516,5.516,0,0,1-3.223.2,5.456,5.456,0,0,1-3.261-2.627c-.088-.157-.345-.036-.254.12a6.224,6.224,0,0,0,2.994,2.643,5.854,5.854,0,0,0,3.839.069q.4,1.714.782,3.434a26.868,26.868,0,0,1-3.438-.707,38.538,38.538,0,0,1-4.85-1.981.14.14,0,0,0-.108.259,40.175,40.175,0,0,0,4.582,1.986,19.03,19.03,0,0,0,3.906.856l.04.181c-.006.016-.015.03-.021.046a.184.184,0,0,0,.086.243c.244,1.1.489,2.2.744,3.293.015.068.034.136.05.2-2.817.018-7.148-.213-8.71-2.764-.149-.243-.5.006-.317.241,2.106,2.729,6.087,2.52,9.169,3.108q.449,1.852.953,3.688a15.167,15.167,0,0,1-5.189-.207c-1.57-.378-3.7-.723-4.874-1.894-.037-.036-.089.023-.054.06,1.131,1.181,3.034,1.468,4.537,1.932a12.326,12.326,0,0,0,5.713.664.348.348,0,0,0,.066.154q.326,1.161.663,2.32c-2.921,1.1-7.864.792-10.3-.67-.011-.007-.02.01-.009.017a10.207,10.207,0,0,0,5.729,1.476,12.642,12.642,0,0,0,4.7-.42c.419,1.428.845,2.855,1.268,4.283-1.436.114-2.834.5-4.271.578a10.193,10.193,0,0,1-5.914-1.635c-.108-.066-.231.089-.121.16,3.4,2.2,6.631,1.8,10.463,1.429q.518,1.758,1.012,3.523c-2.934.738-7.182.716-9.634-.989-.18-.125-.387.145-.206.272a9.637,9.637,0,0,0,5.351,1.415c1.346.043,3.271.257,4.615-.25.01.038.022.077.032.116.466,1.7.884,3.406,1.274,5.122-3.36.645-6.343-.679-9.5-1.747-.22-.074-.354.258-.134.336,3.248,1.155,6.276,2.545,9.748,1.914q.47,2.1.889,4.207a15.339,15.339,0,0,1-8.909-1.478c-.186-.094-.3.2-.119.3a16.485,16.485,0,0,0,9.137,1.725c.3,1.51.584,3.023.865,4.535a11,11,0,0,1-8.2-1.207c-.06-.031-.115.072-.056.106,2.373,1.333,5.63,2.633,8.364,1.655q.135.725.268,1.449c.054.291.107.588.159.887a16.491,16.491,0,0,1-6.692-.09c-.063-.016-.082.079-.021.1a15.707,15.707,0,0,0,6.79.439c.156.915.311,1.857.477,2.815a12.045,12.045,0,0,0-1.806.06,12,12,0,0,1-3.156-.281c-.1-.011-.138.142-.034.157a12.408,12.408,0,0,0,2.82.451c.749-.057,1.493-.03,2.236-.044.665,3.794,1.533,7.751,3.475,10.786.43.673,1.723.3,1.554-.548A63.648,63.648,0,0,0,356.132,363.467Z"/>
            </g>
            <g id="Group_77" data-name="Group 77">
              <path id="Path_54" data-name="Path 54" class="cls-17" d="M377.417,328.42c.465,10.509,5.385,27.367-7.149,33.4-3.375,1.625-7.435.027-10.218-2.277-3.642-3.015-6.268-10.681-7.352-15.171-.86-3.559-.65-7.823-1.165-11.5-.556-3.974-1.193-7.936-1.719-11.915-1.893-14.338,2.433-27.85,12.983-37.912,2.108,4.331,5.257,7.652,8.28,11.558a46.871,46.871,0,0,1,3.8,5.646c1.945,3.46,1.676,7.521,1.671,11.306C376.54,317.152,377.169,322.824,377.417,328.42Z"/>
              <path id="Path_55" data-name="Path 55" class="cls-9" d="M368.117,362.723q-.177-1.291-.327-2.591a11.1,11.1,0,0,0,4.146-2.737,24.969,24.969,0,0,0,4.775-6.235c.072-.122-.131-.238-.212-.126a27.755,27.755,0,0,1-4.807,5.446,16.9,16.9,0,0,1-4,2.76q-.171-1.554-.3-3.11c1.593-.617,2.826-2.077,4.009-3.255a53.728,53.728,0,0,0,5.255-6.615.025.025,0,0,0-.039-.031c-2.635,3.159-5.387,7.4-9.284,9.165-.1-1.3-.185-2.605-.236-3.908,0-.068,0-.135-.007-.2,4.422-2.389,6.682-6.9,9.542-10.811.046-.063-.042-.147-.092-.084-2.863,3.667-5.412,7.67-9.476,10.124-.065-1.865-.114-3.729-.159-5.591a26,26,0,0,0,8.762-10.267.062.062,0,0,0-.107-.062c-2.279,4-5.217,6.708-8.675,9.53-.045-1.843-.094-3.686-.165-5.529,1.62-1.376,3.425-2.421,4.83-4.048a15.525,15.525,0,0,0,3.184-5.423.087.087,0,0,0-.165-.055c-1.522,4.043-4.858,6.024-7.885,8.713-.073-1.716-.169-3.431-.3-5.146,3.343-3.12,7.062-6.167,8.226-10.821.012-.046-.055-.072-.07-.025-1.38,4.353-5.045,7-8.226,9.989-.025-.305-.045-.61-.074-.916-.147-1.584-.31-3.167-.478-4.749a38.342,38.342,0,0,0,5.492-5.071,12.528,12.528,0,0,0,3.045-4.285.087.087,0,0,0-.163-.062c-1.329,3.51-5.454,6.388-8.445,8.732q-.256-2.4-.514-4.792c3.166-3.206,7.248-5.568,8.518-10.227a.112.112,0,0,0-.213-.067c-1.442,4.324-5.346,6.533-8.385,9.548q-.156-1.485-.3-2.971c3.661-2.5,7.5-7.069,8.708-11.256a.187.187,0,0,0-.354-.118,23.366,23.366,0,0,1-8.427,10.586c-.152-1.606-.293-3.214-.408-4.824a.442.442,0,0,0,.026-.152,23.919,23.919,0,0,0,4.467-4.083,14.58,14.58,0,0,0,3.741-5.657.2.2,0,0,0-.384-.1c-.984,3.653-4.7,6.873-7.912,8.985-.038-.588-.079-1.176-.109-1.765q-.069-1.323-.127-2.646c1.191-1.36,2.9-2.3,4.083-3.718a27.56,27.56,0,0,0,2.646-4,.124.124,0,0,0-.21-.133,23.414,23.414,0,0,1-3.822,4.842c-.86.783-1.918,1.374-2.734,2.2-.064-1.443-.13-2.885-.209-4.326.017-.008.032-.017.048-.024l.055,0a.261.261,0,0,0,.218-.133c1.836-.99,2.91-3.058,3.864-4.83a.037.037,0,0,0-.063-.039,13.505,13.505,0,0,1-3.987,4.458c-.008,0-.014,0-.022,0l-.147.014q-.1-1.759-.243-3.513a.264.264,0,0,0,.16-.346,21.309,21.309,0,0,0,2.249-3.184.075.075,0,0,0-.125-.081,17.335,17.335,0,0,1-2.356,2.749,71.624,71.624,0,0,0-.99-7.2c-.043-.221-.373-.14-.339.08.368,2.317.606,4.644.78,6.975a21.5,21.5,0,0,1-4.085-3.761c-.056-.075-.181-.007-.129.076a13.292,13.292,0,0,0,2.138,2.426,17.684,17.684,0,0,0,2.138,2.067c.086,1.253.152,2.509.207,3.765a6.826,6.826,0,0,1-3.964-.5,6.751,6.751,0,0,1-3.356-3.949c-.071-.211-.412-.124-.337.087a7.694,7.694,0,0,0,3.028,3.906,7.241,7.241,0,0,0,4.651.973q.09,2.177.155,4.356a33.093,33.093,0,0,1-4.016-1.656c-2.087-.946-3.534-2.353-5.436-3.531-.191-.118-.381.17-.192.291,1.794,1.145,3.16,2.531,5.11,3.475a23.544,23.544,0,0,0,4.55,1.944l.008.23c-.012.018-.025.033-.036.051a.229.229,0,0,0,.047.316c.043,1.391.086,2.783.142,4.174,0,.087.01.174.014.261-3.429-.63-8.641-1.914-9.949-5.377a.247.247,0,1,0-.441.22c1.929,3.806,6.816,4.473,10.428,5.9q.114,2.355.3,4.7a18.749,18.749,0,0,1-6.26-1.454c-1.821-.822-4.333-1.735-5.487-3.43-.037-.053-.114.007-.079.06,1.1,1.7,3.347,2.487,5.067,3.4a15.276,15.276,0,0,0,6.792,2.13.42.42,0,0,0,.045.2q.126,1.486.269,2.974c-3.806.656-9.745-.858-12.366-3.2-.012-.011-.027.008-.016.019a12.63,12.63,0,0,0,6.625,3.12,15.617,15.617,0,0,0,5.806.577c.178,1.834.366,3.668.549,5.5-1.772-.194-3.561-.05-5.326-.287a12.6,12.6,0,0,1-6.81-3.356c-.117-.1-.3.055-.185.167,3.623,3.455,7.645,3.721,12.389,4.159q.222,2.258.414,4.518c-3.737.217-8.9-.793-11.482-3.434-.19-.193-.5.087-.314.283a11.922,11.922,0,0,0,6.178,2.959c1.626.364,3.917,1.07,5.667.765.005.049.009.1.013.148.174,2.171.286,4.346.363,6.522-4.235.006-7.554-2.294-11.145-4.323-.25-.141-.49.231-.241.377,3.682,2.157,7.041,4.547,11.408,4.585q.085,2.658.106,5.32a18.978,18.978,0,0,1-10.488-3.86c-.2-.157-.41.178-.213.335a20.414,20.414,0,0,0,10.709,4.213c.013,1.9.01,3.809,0,5.713-3.618.35-6.853-1.153-9.7-3.367-.066-.052-.158.061-.093.115,2.576,2.171,6.234,4.505,9.785,3.949q0,.912-.01,1.824,0,.551-.012,1.115A20.416,20.416,0,0,1,357.7,352.8c-.073-.035-.118.077-.048.114a19.458,19.458,0,0,0,8.153,2.106c-.022,1.148-.052,2.33-.072,3.532a15.118,15.118,0,0,0-2.21-.345,14.818,14.818,0,0,1-3.771-1.072c-.12-.037-.2.141-.078.183a15.419,15.419,0,0,0,3.324,1.2c.925.105,1.822.309,2.728.465-.07,4.766.07,9.777,1.728,13.916.367.918,2.025.767,2.016-.306C369.442,369.3,368.565,365.986,368.117,362.723Z"/>
            </g>
            <path id="Path_56" data-name="Path 56" class="cls-25" d="M384.335,366.66l-.464,8.543-.726,13.3-1.19,21.858H352.363l-1.19-21.858-.726-13.3-.464-8.543Z"/>
            <path id="Path_57" data-name="Path 57" class="cls-24" d="M383.871,375.2l-.1,1.713-.1,1.773-.535,9.816H351.173l-.535-9.816-.1-1.773-.1-1.713Z"/>
            <path id="Path_58" data-name="Path 58" class="cls-25" d="M383.776,376.916l-.1,1.773H350.638l-.1-1.773Z"/>
          </g>
        </g>
      </g>
    </g>
  </g>
</svg>
